<svg xmlns="http://www.w3.org/2000/svg" viewBox="0 0 120 90">
  <rect x="2" y="2" width="116" height="86" rx="16" fill="#000"/>
  <path d="M8 44 C20 14, 44 8, 60 8 C76 8, 100 14, 112 44 C100 74, 76 80, 60 80 C44 80, 20 74, 8 44Z" fill="white"/>
  <path d="M28 60 C34 38, 52 24, 78 22 C90 21, 100 26, 104 34 C96 28, 84 26, 70 30 C50 36, 38 52, 38 62 C36 66, 30 66, 28 60Z" fill="black"/>
  <path d="M38 62 C40 52, 54 38, 74 34 C86 31, 98 36, 100 44 C92 38, 80 36, 66 42 C52 48, 46 60, 46 68 C44 72, 36 70, 38 62Z" fill="black"/>
</svg>
